<svg width="100" height="32" viewBox="0 0 100 32" fill="none" xmlns="http://www.w3.org/2000/svg">
<rect width="100" height="32" rx="16" fill="white" fill-opacity="0.2"/>
<path d="M53.8867 21H52.1641V12.4414H47.7822V21H46.0596V11.0469H53.8867V21ZM58.4053 18.6211L59.9092 13.6035H61.6797L58.7402 22.1211C58.2891 23.3652 57.5234 23.9873 56.4434 23.9873C56.2018 23.9873 55.9352 23.9463 55.6436 23.8643V22.5791L55.958 22.5996C56.3773 22.5996 56.6917 22.5221 56.9014 22.3672C57.1156 22.2168 57.2842 21.9616 57.4072 21.6016L57.6465 20.9658L55.0488 13.6035H56.8398L58.4053 18.6211ZM65.583 19.8105C65.9977 19.8105 66.3418 19.6898 66.6152 19.4482C66.8887 19.2067 67.0345 18.9082 67.0527 18.5527H68.6182C68.5999 19.013 68.4564 19.4437 68.1875 19.8447C67.9186 20.2412 67.554 20.5557 67.0938 20.7881C66.6335 21.0205 66.1367 21.1367 65.6035 21.1367C64.569 21.1367 63.7487 20.8018 63.1426 20.1318C62.5365 19.4619 62.2334 18.5368 62.2334 17.3564V17.1855C62.2334 16.0599 62.5342 15.1598 63.1357 14.4854C63.7373 13.8063 64.5576 13.4668 65.5967 13.4668C66.4762 13.4668 67.1917 13.7243 67.7432 14.2393C68.2992 14.7497 68.5908 15.4219 68.6182 16.2559H67.0527C67.0345 15.832 66.8887 15.4834 66.6152 15.21C66.3464 14.9365 66.0023 14.7998 65.583 14.7998C65.0452 14.7998 64.6305 14.9958 64.3389 15.3877C64.0472 15.7751 63.8991 16.3652 63.8945 17.1582V17.4248C63.8945 18.2269 64.0381 18.8262 64.3252 19.2227C64.6169 19.6146 65.0361 19.8105 65.583 19.8105ZM75.6934 14.9229H73.2939V21H71.6328V14.9229H69.2607V13.6035H75.6934V14.9229ZM76.2881 17.2334C76.2881 16.5088 76.4316 15.8571 76.7188 15.2783C77.0059 14.695 77.4092 14.2484 77.9287 13.9385C78.4482 13.624 79.0452 13.4668 79.7197 13.4668C80.7178 13.4668 81.5267 13.7881 82.1465 14.4307C82.7708 15.0732 83.1081 15.9255 83.1582 16.9873L83.165 17.377C83.165 18.1061 83.0238 18.7578 82.7412 19.332C82.4632 19.9062 82.0622 20.3506 81.5381 20.665C81.0186 20.9795 80.417 21.1367 79.7334 21.1367C78.6898 21.1367 77.8535 20.7904 77.2246 20.0977C76.6003 19.4004 76.2881 18.473 76.2881 17.3154V17.2334ZM77.9492 17.377C77.9492 18.138 78.1064 18.735 78.4209 19.168C78.7354 19.5964 79.1729 19.8105 79.7334 19.8105C80.2939 19.8105 80.7292 19.5918 81.0391 19.1543C81.3535 18.7168 81.5107 18.0765 81.5107 17.2334C81.5107 16.486 81.349 15.8936 81.0254 15.4561C80.7064 15.0186 80.2712 14.7998 79.7197 14.7998C79.1774 14.7998 78.7467 15.0163 78.4277 15.4492C78.1087 15.8776 77.9492 16.5202 77.9492 17.377Z" fill="white"/>
<path d="M21.7035 8L21.4616 6H16V8H19.6679L21.1795 21H35.2869L37 8H21.7035ZM33.5034 19H22.9731L21.9655 10H34.6924L33.5034 19Z" fill="white"/>
<path d="M23.0336 26C24.1466 26 25.0489 25.1046 25.0489 24C25.0489 22.8954 24.1466 22 23.0336 22C21.9205 22 21.0182 22.8954 21.0182 24C21.0182 25.1046 21.9205 26 23.0336 26Z" fill="white"/>
<path d="M32.1027 26C33.2157 26 34.118 25.1046 34.118 24C34.118 22.8954 33.2157 22 32.1027 22C30.9896 22 30.0873 22.8954 30.0873 24C30.0873 25.1046 30.9896 26 32.1027 26Z" fill="white"/>
</svg>
