<svg width="92" height="32" viewBox="0 0 92 32" fill="none" xmlns="http://www.w3.org/2000/svg">
<rect width="92" height="32" rx="16" fill="white" fill-opacity="0.2"/>
<path d="M22.04 20.88L28.96 15.5L22.04 10.13V13.04H16V17.96H22.04V20.88Z" fill="white"/>
<path d="M34 6H21C20.4696 6 19.9609 6.21071 19.5858 6.58579C19.2107 6.96086 19 7.46957 19 8V10H21V8H34V23H21V21H19V23C19 23.5304 19.2107 24.0391 19.5858 24.4142C19.9609 24.7893 20.4696 25 21 25H34C34.5304 25 35.0391 24.7893 35.4142 24.4142C35.7893 24.0391 36 23.5304 36 23V8C36 7.46957 35.7893 6.96086 35.4142 6.58579C35.0391 6.21071 34.5304 6 34 6Z" fill="white"/>
<path d="M45.0117 21V11.0469H48.4229C49.5485 11.0469 50.4053 11.2725 50.9932 11.7236C51.5811 12.1748 51.875 12.847 51.875 13.7402C51.875 14.196 51.752 14.6061 51.5059 14.9707C51.2598 15.3353 50.8997 15.6178 50.4258 15.8184C50.9635 15.9642 51.3783 16.2399 51.6699 16.6455C51.9661 17.0465 52.1143 17.5296 52.1143 18.0947C52.1143 19.029 51.8135 19.7467 51.2119 20.248C50.6149 20.7493 49.7581 21 48.6416 21H45.0117ZM46.7412 16.5088V19.6191H48.6621C49.2044 19.6191 49.6283 19.4847 49.9336 19.2158C50.2389 18.9469 50.3916 18.5732 50.3916 18.0947C50.3916 17.0602 49.863 16.5316 48.8057 16.5088H46.7412ZM46.7412 15.2373H48.4365C48.9743 15.2373 49.3936 15.1165 49.6943 14.875C49.9997 14.6289 50.1523 14.2826 50.1523 13.8359C50.1523 13.3438 50.0111 12.9883 49.7285 12.7695C49.4505 12.5508 49.0153 12.4414 48.4229 12.4414H46.7412V15.2373ZM56.3389 16.0371L57.7471 13.6035H59.5928L57.3301 17.2471L59.668 21H57.8359L56.3594 18.4707L54.8896 21H53.0439L55.3818 17.2471L53.126 13.6035H54.958L56.3389 16.0371ZM60.1396 17.2334C60.1396 16.5088 60.2832 15.8571 60.5703 15.2783C60.8574 14.695 61.2607 14.2484 61.7803 13.9385C62.2998 13.624 62.8968 13.4668 63.5713 13.4668C64.5693 13.4668 65.3783 13.7881 65.998 14.4307C66.6224 15.0732 66.9596 15.9255 67.0098 16.9873L67.0166 17.377C67.0166 18.1061 66.8753 18.7578 66.5928 19.332C66.3148 19.9062 65.9137 20.3506 65.3896 20.665C64.8701 20.9795 64.2686 21.1367 63.585 21.1367C62.5413 21.1367 61.7051 20.7904 61.0762 20.0977C60.4518 19.4004 60.1396 18.473 60.1396 17.3154V17.2334ZM61.8008 17.377C61.8008 18.138 61.958 18.735 62.2725 19.168C62.5869 19.5964 63.0244 19.8105 63.585 19.8105C64.1455 19.8105 64.5807 19.5918 64.8906 19.1543C65.2051 18.7168 65.3623 18.0765 65.3623 17.2334C65.3623 16.486 65.2005 15.8936 64.877 15.4561C64.5579 15.0186 64.1227 14.7998 63.5713 14.7998C63.029 14.7998 62.5983 15.0163 62.2793 15.4492C61.9603 15.8776 61.8008 16.5202 61.8008 17.377ZM67.96 19.6738C68.4202 19.1589 68.7279 18.6712 68.8828 18.2109C69.0423 17.7461 69.138 17.1536 69.1699 16.4336L69.2656 13.6035H74.3994V19.6738H75.4248V23.2012H73.7705V21H69.0264V23.2012H67.3447L67.3516 19.6738H67.96ZM69.9082 19.6738H72.7451V15.0322H70.8789L70.8311 16.4473C70.7673 17.8053 70.4596 18.8809 69.9082 19.6738Z" fill="white"/>
</svg>
